<svg viewBox="0 0 32 32" xmlns="http://www.w3.org/2000/svg" xml:space="preserve" fill-rule="evenodd" clip-rule="evenodd"
     stroke-linejoin="round" stroke-miterlimit="2">
     <path
       d="M6.098 26.055c-.289 0-.543-.098-.762-.293a.935.935 0 0 1-.328-.727c0-.125.027-.258.082-.398.609-1.68 1.758-4.1 3.445-7.26 1.688-3.16 2.84-5.584 3.457-7.271 1.024-2.797 1.797-4.184 2.321-4.161.289.008.542.112.761.311a.939.939 0 0 1 .328.721c0 .179-.043.394-.129.644l-1.312 3.188c-.523 1.445-1.27 3.113-2.238 5.004l-2.555 4.851-2.121 4.699c-.211.461-.527.692-.949.692Zm19.746-10.078c-.43 0-.731-.145-.903-.434-.117-.203-.218-.625-.304-1.266-.586.149-1.489.422-2.707.821-1.258.5-1.891 1.117-1.899 1.851.235.086.465.149.692.188 1.797.32 3.132.762 4.007 1.324 1.274.82 1.911 2.008 1.911 3.563 0 1.273-.551 2.234-1.653 2.882-.914.532-2.07.797-3.468.797-1.024 0-2-.172-2.93-.515-1.203-.438-1.805-1.047-1.805-1.828 0-.313.123-.586.369-.821.246-.234.526-.351.838-.351.242 0 .555.187.938.562.187.18.609.328 1.265.445.524.094.965.141 1.325.141.656 0 1.234-.078 1.734-.234.726-.227 1.09-.586 1.09-1.078 0-1.063-.742-1.782-2.227-2.157l-1.219-.269c-1.039-.227-1.777-.492-2.214-.797-.633-.438-.95-1.098-.95-1.981 0-1.632.77-2.796 2.309-3.492.469-.211 1.219-.463 2.25-.756s1.77-.541 2.215-.744c.32-.14.668-.211 1.043-.211.336 0 .611.11.826.328.215.219.322.504.322.856 0 .226.049.559.147.996.097.438.146.77.146.996 0 .352-.107.637-.322.856a1.11 1.11 0 0 1-.826.328Z"
       fill-rule="nonzero" fill="#fff" opacity=".03"/>
     </svg>
