<svg viewBox="0 0 16 16" xmlns="http://www.w3.org/2000/svg" fill-rule="evenodd" clip-rule="evenodd" stroke-linejoin="round" stroke-miterlimit="2"><path d="M8.463 5.337l1.518 1.56-6.785 7.5c-.295.316-.821.316-1.137 0l-.822-.843c-.316-.295-.316-.821 0-1.138l7.226-7.079zm6.363 1.602L13.688 8.1c-.232.23-.59.23-.842 0l-.253-.275c-.19-.169-.274-.485-.169-.632.19-.127.126-.506-.232-.843-.505-.527-1.158-.548-1.411-.274-.105.084-.442.443-.442.443l-1.56-1.539.253-.252s.063-.064.19-.21c.484-.485-.021-1.034-.021-1.034-1.37-1.348-3.287-1.327-3.287-1.327l-.02-.484c3.855-.99 5.308.695 5.835 1.222l1.117 1.117c.273.273 0 1.053.4 1.495.19.19.442.274.632.274.21-.19.548-.126.716.064l.232.253c.231.23.231.59 0 .842z" fill="#5865f2" fill-rule="nonzero"/></svg>
