<svg viewBox="0 0 1024 1024" xmlns="http://www.w3.org/2000/svg" xml:space="preserve" style="fill-rule:evenodd;clip-rule:evenodd;stroke-linecap:round;stroke-linejoin:round;stroke-miterlimit:1.5"><clipPath id="a"><path d="M1024 0H0v1024h1024V0ZM708.407 555.586a25 25 0 0 0-47.18 3.44L551.033 978.313a25.002 25.002 0 0 0 8.815 26.077c7.889 6.14 18.682 7 27.439 2.17l233.81-128.967c11.231-6.195 15.952-19.884 10.927-31.685L708.407 555.586Zm-383.9-284.623a24.886 24.886 0 0 0-7.289 7.753L55.784 715.285l-.131.221c-18.371 31.408-7.092 72.672 23.645 89.68l50.264 30.261.272.161c31.598 18.483 73.173 6.954 89.986-24.207.062-.115.123-.23.183-.346l234.529-451.434a24.858 24.858 0 0 0 2.78-12.82 24.957 24.957 0 0 0 9.593-9.764s10.394-19.368 13.993-24.203a25.044 25.044 0 0 0 2.016-3.183c1.222-2.297 4.81-2.224 8.427-2.639 8.404-.964 18.518 1.363 28.62 7.551.36.221.726.432 1.097.634 4.013 2.187 7.977 5.998 10.216 8.351-2.871 8.438-2.652 18.998 1.753 29.504 4.654 11.101 14.167 22.19 25.654 28.466l14.933 9.556c.584.374 1.184.723 1.797 1.047 27.691 14.629 59.153 5.616 74.267-20.223l.114-.198 40.595-70.887c.142-.248.28-.499.413-.751 14.526-27.51 5.733-58.72-19.693-73.951l-13.979-9.014c-17.548-11.576-43.961-10.984-61.207 3.218-2.948-.229-6.162-1.113-9.17-2.756-4.331-3.088-6.377-8.059-8.327-12.905-2.398-5.957-4.183-12.169-6.039-17.898-5.589-17.242-13.629-30.706-24.759-37.216l-68.568-40.107c-17.756-10.385-52.061-32.697-105.829-39.365-52.592-6.521-124.535 1.749-218.502 54.007-10.328 5.744-15.223 17.936-11.735 29.227l7.2 23.312c3.982 12.89 17.473 20.296 30.486 16.735 0 0 82.96-22.695 157.74 20.237 2.73 1.797 9.891 7.526 5.11 15.7a24.718 24.718 0 0 0-.904 1.692c-3.694 7.599-5.635 10.971-5.638 10.977l-9.081 15.524a24.937 24.937 0 0 0-3.398 13.484Zm370.533 189.34A25 25 0 0 0 674 502.358l200.084 210.43a24.999 24.999 0 0 0 41.827-9.301l60.106-179.806a25.002 25.002 0 0 0-20.789-32.755L695.04 460.303Z"/></clipPath><g clip-path="url(#a)"><path d="M799.161 179.518c127.043 98.935 123.543 316.198-7.811 484.87-131.353 168.673-341.139 225.291-468.181 126.356-127.043-98.934-123.543-316.197 7.81-484.87 131.354-168.672 341.139-225.29 468.182-126.356ZM330.979 305.874l63.216 49.229M791.35 664.388l-65.075-47.847M323.169 790.744l49.623-63.721m426.369-547.505-49.53 63.603" style="fill:none;stroke:#9a57f2;stroke-width:75px"/><path d="m594.799 480.226 216.743-174.352-295 143.989c-2.554.916-5 2.113-7.292 3.559l-.107.052-.911.612-.226.147-.086.062-.379.254-.769.575-.227.164-.114.091-.419.313-.668.554-.21.167-.132.117-.446.369-.578.531-.201.177-.153.148-.449.412-.493.501-.206.2-.182.193-.425.432-.412.462-.224.238-.217.256-.378.425-.336.416-.249.293-.255.332-.314.39-.268.368-.278.361-.285.413-.247.338-.21.322-.305.439-.3.483-.184.281-.166.281-.326.526-.294.531-.135.228-.133.254-.341.615-.268.547-.099.188-.113.243-.346.705-.228.532-.075.16-.101.249-.342.797-.182.491-.055.134-.093.264-.334.901-.137.435-.035.1-.078.258-.329 1.047-.099.382-.011.038-.033.134a36.995 36.995 0 0 0-1.066 14.047l.012.133.002.014.009.09.124.85.121.851.017.09.002.013.026.132a37.258 37.258 0 0 0 4.992 13.172l.071.12.021.033.203.338.611.911.148.226.061.086.255.379.575.769.164.227.09.114.314.419.553.668.168.21.116.132.37.446.531.578.177.201.148.153.412.449.501.494.199.206.194.181.432.426.462.411.238.224.256.217.424.378.417.336.293.249.332.255.39.315.368.268.361.277.412.286.339.246.321.211.44.304.483.3.281.184.281.166.526.326.53.295.229.134.254.133.615.341.547.268.188.099.243.113.705.346.532.229.16.074.248.101.798.343.49.182.135.054.264.093.9.334.436.137.099.035.259.078 1.047.329.06.003a37.502 37.502 0 0 0 17.312.778l144.001 6.476-85.484-48.21Z" style="fill:#9a57f2"/></g><path d="m338.666 291.56 93.681 56.536L197.819 799.53c-10.326 19.137-35.957 25.85-55.363 14.499l-50.724-30.538c-19.138-10.325-25.85-35.956-14.499-55.362L338.666 291.56Zm330.027-3.171-40.595 70.887c-8.324 14.231-25.758 18.797-41.009 10.74l-15.794-10.106c-11.375-5.785-19.503-20.09-16.257-28.609 7.616-8.568-.292-26.216-22.017-38.056-31.319-19.186-63.369-11.888-72.177 4.661-4.052 5.443-15.891 27.168-15.891 27.168l-95.468-54.972 9.081-15.525s2.27-3.881 6.542-12.669c17.405-29.756-14.182-49.968-14.182-49.968-83.825-48.162-176.847-22.704-176.847-22.704l-7.201-23.312c174.998-97.322 267.214-33.829 299.558-14.911l68.568 40.107c16.818 9.837 13.425 51.261 38.543 67.689 11.644 6.811 25.021 7.69 34.248 5.273 7.835-11.912 25.045-13.132 35.663-6.053l14.5 9.349c14.226 8.325 18.79 25.754 10.735 41.011Z" style="fill:#5865f2;fill-rule:nonzero"/><path d="M685.405 565.38 575.212 984.667l233.811-128.965L685.405 565.38Zm6.712-80.249 260.189 30.624-60.105 179.807-200.084-210.431Z" style="fill:#57cef2"/></svg>